<svg id="Layer_1" data-name="Layer 1" xmlns="http://www.w3.org/2000/svg" viewBox="0 0 1810.6 1001.2"><defs><style>.cls-1{fill:#94d191;}.cls-2,.cls-3,.cls-4,.cls-6{fill:none;}.cls-2,.cls-3{stroke:#fff;}.cls-2{stroke-width:15px;}.cls-3{stroke-width:10px;}.cls-5{fill:#e2ffda;}.cls-6{stroke:#72b070;stroke-width:5px;}</style></defs><path class="cls-1" d="M371.17,807.79c174.78,0,316.47-141.69,316.47-316.47S546,174.84,371.17,174.84,54.7,316.54,54.7,491.32,196.39,807.79,371.17,807.79" transform="translate(-54.7 -39.4)"/><path class="cls-2" d="M344.77,741.45c121.54,0,220.06-112,220.06-250.14S466.31,241.18,344.77,241.18a196.66,196.66,0,0,0-31.14,2.48c-106.79,17.2-188.92,121.52-188.92,247.65C124.71,629.46,223.23,741.45,344.77,741.45Z" transform="translate(-54.7 -39.4)"/><path class="cls-1" d="M1725.29,1019.5a140,140,0,1,0-140-140,140,140,0,0,0,140,140" transform="translate(-54.7 -39.4)"/><ellipse class="cls-3" cx="1679.7" cy="840.09" rx="88.71" ry="93.98"/><rect class="cls-4" width="1810.6" height="1001.2"/><rect class="cls-5" x="258.93" y="26.85" width="1411.66" height="970.51"/><line class="cls-6" x1="309.81" y1="147.69" x2="309.81" y2="853.52"/></svg>